<svg width="1024" height="1024" viewBox="0 0 1024 1024" xmlns="http://www.w3.org/2000/svg" role="img" aria-label="Liquidcast">
  <defs>
    <linearGradient id="bgSheen" x1="0" y1="0" x2="0" y2="1"><stop offset="0" stop-color="#ffffff" stop-opacity="0.3"/><stop offset="0.4" stop-color="#ffffff" stop-opacity="0"/></linearGradient>
    <radialGradient id="spec" cx="0.35" cy="0.28" r="0.5"><stop offset="0" stop-color="#ffffff" stop-opacity="0.9"/><stop offset="1" stop-color="#ffffff" stop-opacity="0"/></radialGradient>
    <filter id="ds" x="-30%" y="-30%" width="160%" height="160%"><feDropShadow dx="0" dy="10" stdDeviation="16" flood-color="#0a2540" flood-opacity="0.18"/></filter>
    <filter id="sb" x="-50%" y="-50%" width="200%" height="200%"><feGaussianBlur stdDeviation="6"/></filter>
    <clipPath id="dc"><path transform="translate(179.00,198.10) scale(5.55)" d="M60 12 C 74 34, 94 54, 94 74 A 34 34 0 1 1 26 74 C 26 54, 46 34, 60 12 Z"/></clipPath>
  </defs>
  <g filter="url(#ds)">
    <path transform="translate(179.00,198.10) scale(5.55)" d="M60 12 C 74 34, 94 54, 94 74 A 34 34 0 1 1 26 74 C 26 54, 46 34, 60 12 Z" fill="#ffffff" fill-opacity="0.4"/>
  </g>
  <g clip-path="url(#dc)">
    <g transform="translate(179.00,198.10) scale(5.55)" fill="none" stroke="#ffffff" stroke-opacity="0.95" stroke-linecap="round">
      <circle cx="60" cy="84" r="5.5" fill="#ffffff" fill-opacity="0.95" stroke="none"/>
      <path d="M45 76 A 18 18 0 0 1 75 76" stroke-width="6"/>
      <path d="M38 68 A 28 28 0 0 1 82 68" stroke-width="6" opacity="0.72"/>
    </g>
  </g>
  <g clip-path="url(#dc)">
    <path transform="translate(179.00,198.10) scale(5.55)" d="M60 12 C 74 34, 94 54, 94 74" fill="none" stroke="#ffffff" stroke-opacity="0.9" stroke-width="3.2" stroke-linecap="round" filter="url(#sb)"/>
  </g>
  <path transform="translate(179.00,198.10) scale(5.55)" d="M60 12 C 74 34, 94 54, 94 74 A 34 34 0 1 1 26 74 C 26 54, 46 34, 60 12 Z" fill="none" stroke="#ffffff" stroke-opacity="0.6" stroke-width="1.4"/>
</svg>