<svg width="1024" height="1024" viewBox="0 0 1024 1024" xmlns="http://www.w3.org/2000/svg">
  <defs>
    <mask id="cut">
      <path transform="translate(162.00,162.00) scale(5.833333333333333)" d="M60 12 C 74 34, 94 54, 94 74 A 34 34 0 1 1 26 74 C 26 54, 46 34, 60 12 Z" fill="#ffffff"/>
      <g transform="translate(162.00,162.00) scale(5.833333333333333)" fill="none" stroke="#000000" stroke-linecap="round">
        <circle cx="60" cy="84" r="6.5" fill="#000000" stroke="none"/>
        <path d="M44 76 A 19 19 0 0 1 76 76" stroke-width="8"/>
        <path d="M36 67 A 30 30 0 0 1 84 67" stroke-width="8"/>
      </g>
    </mask>
  </defs>
  <path transform="translate(162.00,162.00) scale(5.833333333333333)" d="M60 12 C 74 34, 94 54, 94 74 A 34 34 0 1 1 26 74 C 26 54, 46 34, 60 12 Z" fill="#1a1a1a" mask="url(#cut)"/>
</svg>