<svg width="803" height="230" viewBox="0 0 803 230" xmlns="http://www.w3.org/2000/svg" role="img" aria-label="Liquidcast">
  <defs>
    <linearGradient id="m3bg" x1="0" y1="0" x2="1" y2="1">
      <stop offset="0" stop-color="#38D6F0"/><stop offset="0.5" stop-color="#1F8FF5"/><stop offset="1" stop-color="#2F4BE0"/>
    </linearGradient>
  </defs>
  <rect width="803" height="230" rx="40" fill="#12161B"/>
  <rect x="40" y="40" width="150" height="150" rx="45.0" fill="url(#m3bg)"/>
  <g transform="translate(68.50,68.50) scale(0.7750)">
    <path d="M60 12 C 74 34, 94 54, 94 74 A 34 34 0 1 1 26 74 C 26 54, 46 34, 60 12 Z" fill="#ffffff"/>
    <g fill="none" stroke="#1F8FF5" stroke-linecap="round">
      <circle cx="60" cy="84" r="6.5" fill="#1F8FF5" stroke="none"/>
      <path d="M44 76 A 19 19 0 0 1 76 76" stroke-width="8"/>
      <path d="M36 67 A 30 30 0 0 1 84 67" stroke-width="8"/>
    </g>
  </g>
  <path transform="matrix(0.10400 0 0 -0.10400 230.0000 151.0000)" d="M189 92H424V0H75V695H189Z" fill="#F4FAFE"/>
  <path transform="matrix(0.10400 0 0 -0.10400 275.1760 151.0000)" d="M60 697Q60 728 81.0 749.0Q102 770 133 770Q163 770 184.0 749.0Q205 728 205 697Q205 666 184.0 645.0Q163 624 133 624Q102 624 81.0 645.0Q60 666 60 697ZM189 551V0H75V551Z" fill="#F4FAFE"/>
  <path transform="matrix(0.10400 0 0 -0.10400 301.6320 151.0000)" d="M298 560Q362 560 411.5 534.0Q461 508 488 471V551H603V-262H488V80Q461 43 410.0 17.0Q359 -9 294 -9Q223 -9 164.5 27.5Q106 64 71.5 129.5Q37 195 37 278Q37 361 71.5 425.0Q106 489 165.5 524.5Q225 560 298 560ZM321 461Q277 461 239.0 439.5Q201 418 177.5 376.5Q154 335 154 278Q154 221 177.5 178.0Q201 135 239.5 112.5Q278 90 321 90Q365 90 403.0 112.0Q441 134 464.5 176.5Q488 219 488 276Q488 333 464.5 375.0Q441 417 403.0 439.0Q365 461 321 461Z" fill="#F4FAFE"/>
  <path transform="matrix(0.10400 0 0 -0.10400 371.1440 151.0000)" d="M574 551V0H460V65Q433 31 389.5 11.5Q346 -8 297 -8Q232 -8 180.5 19.0Q129 46 99.5 99.0Q70 152 70 227V551H183V244Q183 170 220.0 130.5Q257 91 321 91Q385 91 422.5 130.5Q460 170 460 244V551Z" fill="#F4FAFE"/>
  <path transform="matrix(0.10400 0 0 -0.10400 437.6400 151.0000)" d="M60 697Q60 728 81.0 749.0Q102 770 133 770Q163 770 184.0 749.0Q205 728 205 697Q205 666 184.0 645.0Q163 624 133 624Q102 624 81.0 645.0Q60 666 60 697ZM189 551V0H75V551Z" fill="#F4FAFE"/>
  <path transform="matrix(0.10400 0 0 -0.10400 464.0960 151.0000)" d="M298 560Q352 560 404.5 536.5Q457 513 488 474V740H603V0H488V83Q460 43 410.5 17.0Q361 -9 297 -9Q225 -9 165.5 27.5Q106 64 71.5 129.5Q37 195 37 278Q37 361 71.5 425.0Q106 489 165.5 524.5Q225 560 298 560ZM321 461Q277 461 239.0 439.5Q201 418 177.5 376.5Q154 335 154 278Q154 221 177.5 178.0Q201 135 239.5 112.5Q278 90 321 90Q365 90 403.0 112.0Q441 134 464.5 176.5Q488 219 488 276Q488 333 464.5 375.0Q441 417 403.0 439.0Q365 461 321 461Z" fill="#F4FAFE"/>
  <path transform="matrix(0.10400 0 0 -0.10400 533.6080 151.0000)" d="M308 566Q413 566 483.5 511.0Q554 456 576 356H394Q371 420 305 420Q258 420 230.0 383.5Q202 347 202 279Q202 211 230.0 174.5Q258 138 305 138Q371 138 394 202H576Q554 104 483.0 48.0Q412 -8 308 -8Q226 -8 162.5 27.0Q99 62 63.5 127.0Q28 192 28 279Q28 366 63.5 431.0Q99 496 162.5 531.0Q226 566 308 566Z" fill="#4FB0FF"/>
  <path transform="matrix(0.10400 0 0 -0.10400 595.5280 151.0000)" d="M274 566Q333 566 377.5 542.0Q422 518 446 479V558H617V0H446V79Q421 40 376.5 16.0Q332 -8 273 -8Q205 -8 149.0 27.5Q93 63 60.5 128.5Q28 194 28 280Q28 366 60.5 431.0Q93 496 149.0 531.0Q205 566 274 566ZM324 417Q273 417 237.5 380.5Q202 344 202 280Q202 216 237.5 178.5Q273 141 324 141Q375 141 410.5 178.0Q446 215 446 279Q446 343 410.5 380.0Q375 417 324 417Z" fill="#4FB0FF"/>
  <path transform="matrix(0.10400 0 0 -0.10400 665.1440 151.0000)" d="M32 183H201Q204 154 228.0 136.0Q252 118 287 118Q319 118 336.5 130.5Q354 143 354 163Q354 187 329.0 198.5Q304 210 248 224Q188 238 148.0 253.5Q108 269 79.0 302.5Q50 336 50 393Q50 441 76.5 480.5Q103 520 154.5 543.0Q206 566 277 566Q382 566 442.5 514.0Q503 462 512 376H354Q350 405 328.5 422.0Q307 439 272 439Q242 439 226.0 427.5Q210 416 210 396Q210 372 235.5 360.0Q261 348 315 336Q377 320 416.0 304.5Q455 289 484.5 254.5Q514 220 515 162Q515 113 487.5 74.5Q460 36 408.5 14.0Q357 -8 289 -8Q216 -8 159.0 17.0Q102 42 69.0 85.5Q36 129 32 183Z" fill="#4FB0FF"/>
  <path transform="matrix(0.10400 0 0 -0.10400 722.1760 151.0000)" d="M373 145V0H286Q193 0 141.0 45.5Q89 91 89 194V416H21V558H89V694H260V558H372V416H260V192Q260 167 272.0 156.0Q284 145 312 145Z" fill="#4FB0FF"/>
</svg>